inDegrees=yes
name=ik_lifting_orientations
DataType=double
version=3
OpenSimVersion=4.5-2024-01-10-34fd6af
endheader
time	pelvis_tilt	pelvis_list	pelvis_rotation	pelvis_tx	pelvis_ty	pelvis_tz	hip_flexion_r	hip_adduction_r	hip_rotation_r	knee_angle_r	knee_angle_r_beta	ankle_angle_r	subtalar_angle_r	mtp_angle_r	hip_flexion_l	hip_adduction_l	hip_rotation_l	knee_angle_l	knee_angle_l_beta	ankle_angle_l	subtalar_angle_l	mtp_angle_l	lumbar_extension	lumbar_bending	lumbar_rotation	arm_flex_r	arm_add_r	arm_rot_r	elbow_flex_r	pro_sup_r	wrist_flex_r	wrist_dev_r	arm_flex_l	arm_add_l	arm_rot_l	elbow_flex_l	pro_sup_l	wrist_flex_l	wrist_dev_l
1.13	-8.491582270798176	-13.71527127397103	-54.89109271389005	0	0.9399999998679526	0	45.56983333778822	-9.889792113600524	0	60.12625319124087	1.049401085074901	-4.947068031515831	0	0	45.56983333778822	-9.889792113600524	0	60.12625319124087	1.049401085074901	-4.947068031515831	0	0	1.332153401074299	9.945671546291829	-48.24253127498234	24.70167756415976	34.87123539609605	-52.71742221406127	71.41029398396471	-0.4676479072547373	0	5.188521918416877e-69	0	-15.16214950441192	0	90.41904215720106	-0.4676479072547373	0	5.188521918416877e-69
1.14	-9.246405314479848	-14.41098165609318	-54.53324105901692	0	0.9399999998679526	0	45.56700642316807	-9.891100718389842	0	60.1256277604465	1.049390169248296	-4.947820660775323	0	0	45.56700642316807	-9.891100718389842	0	60.1256277604465	1.049390169248296	-4.947820660775323	0	0	4.740508018670673	11.3180446045289	-49.09971918558757	26.22305114883432	37.53192007005199	-53.68975473725467	71.61146543543791	-0.4658684193083271	0	0	0	-15.16165882717351	0	90.41744697693404	-0.4658684193083271	0	0
1.15	-9.235808770714119	-14.40679406263036	-54.52521973483648	0	0.9399999998679526	0	45.56539473733758	-9.891837992666078	0	60.12527130315484	1.049383947894914	-4.948242863202481	0	0	45.56539473733758	-9.891837992666078	0	60.12527130315484	1.049383947894914	-4.948242863202481	0	0	6.248226639455392	11.52527302295524	-49.27604188035667	27.1760299550034	38.49800418807786	-53.71401905499413	71.87566175032242	-0.4648521584610779	0	0	0	-15.16137829963992	0	90.41653597369289	-0.4648521584610779	0	0
1.16	-9.2295520967368	-14.40723166350267	-54.52654340450079	0	0.9399999998679526	0	45.56369688678578	-9.892605714340446	0	60.12489499321376	1.049377380047434	-4.948680773147307	0	0	45.56369688678578	-9.892605714340446	0	60.12489499321376	1.049377380047434	-4.948680773147307	0	0	7.415790846139092	11.73027304120807	-48.91276609117795	27.81779058406035	39.38913503972122	-53.41591860543826	71.71543911582557	-0.4637794900534397	0	0	0	-15.16108181179411	0	90.41557440518729	-0.4637794900534397	0	0
1.17	-9.238092356323936	-14.4120947271945	-54.51589916335277	0	0.9399999998679526	0	45.56246549339669	-9.893175121764131	0	60.12462415926149	1.049372653103241	-4.949007998065276	0	0	45.56246549339669	-9.893175121764131	0	60.12462415926149	1.049372653103241	-4.949007998065276	0	0	8.522668046516449	12.04846389100216	-49.3041207651696	28.42069082152707	40.0889878257755	-53.6980215610398	72.02979988154507	-0.4630044710597906	0	0	0	-15.16086815289941	0	90.41487965757726	-0.4630044710597906	0	0
1.18	-9.229752719652542	-14.40124248383907	-54.52053785850256	0	0.9399999998679526	0	45.56080362608613	-9.893930143680109	0	60.12425731770926	1.049366250510321	-4.949439258332639	0	0	45.56080362608613	-9.893930143680109	0	60.12425731770926	1.049366250510321	-4.949439258332639	0	0	10.7967976106931	12.21093998792812	-49.78894761816116	30.00483429659379	41.3915771671801	-53.76897848424525	72.72092047773923	-0.4619555177245999	0	0	0	-15.16057841723925	0	90.41393934790823	-0.4619555177245999	0	0
1.19	-8.497372917592909	-13.72245730775162	-54.88527370042492	0	0.9399999998679526	0	45.56071671276141	-9.893987486847598	0	60.12424220286447	1.049365986706513	-4.949474901810464	0	0	45.56071671276141	-9.893987486847598	0	60.12424220286447	1.049365986706513	-4.949474901810464	0	0	12.89664380077947	11.70609349383887	-49.73506756270275	31.90037592888121	42.4935722194103	-53.10319570936884	73.32065099477843	-0.461905698895029	0	0	0	-15.16056566715684	0	90.41389468905656	-0.461905698895029	0	0
1.2	-8.492897744330794	-13.71763616146665	-54.88457755911534	0	0.9399999998679526	0	45.55918737364045	-9.894683022736226	0	60.12390514343866	1.049360103909758	-4.949872304751553	0	0	45.55918737364045	-9.894683022736226	0	60.12390514343866	1.049360103909758	-4.949872304751553	0	0	14.78484320720314	11.98817984218918	-50.34878730845944	33.1107671096028	43.48709556015999	-53.38253135404432	74.08792057269488	-0.4609405896760109	0	0	0	-15.16029912968977	0	90.41302953948616	-0.4609405896760109	0	0
1.21	-8.500304240816664	-13.7167498978031	-54.8833382052437	0	0.9399999998679526	0	45.55911666999442	-9.894729442473501	0	60.12389283916072	1.049359889159596	-4.9499011128424	0	0	45.55911666999442	-9.894729442473501	0	60.12389283916072	1.049359889159596	-4.9499011128424	0	0	16.25892679014241	11.90568066169409	-50.37612238513012	34.21881259927049	44.36911369986185	-53.15695335938966	74.40718941640954	-0.4609000247239781	0	0	0	-15.16028874099118	0	90.41299317604211	-0.4609000247239781	0	0
1.22	-8.490671424146338	-13.70602224116561	-54.89843764551698	0	0.9399999998679526	0	45.55755264684391	-9.895430621441058	0	60.12354690985332	1.049353851554203	-4.950299857150028	0	0	45.55755264684391	-9.895430621441058	0	60.12354690985332	1.049353851554203	-4.950299857150028	0	0	18.18974045551559	12.51582219902624	-50.53805782130548	35.11546559641648	45.69347904389392	-53.39239323768843	74.66428962490866	-0.4599105547576244	0	0	0	-15.16001500277007	0	90.41210618881689	-0.4599105547576244	0	0
1.23	-6.583293386924569	-13.3662472816075	-54.09997535407525	0	0.9399999998679526	0	45.5548977154145	-9.896595208315301	0	60.12295653678336	1.049343547600317	-4.950957289900345	0	0	45.5548977154145	-9.896595208315301	0	60.12295653678336	1.049343547600317	-4.950957289900345	0	0	19.10460203549918	11.84369020151503	-50.1872338561659	36.36097701057611	45.81567967163112	-52.48622175090844	75.12239446304704	-0.4582247213032359	0	0	0	-15.15954743585908	0	90.41059496273701	-0.4582247213032359	0	0
1.24	-6.589405029154225	-13.36771462801456	-54.09065337957375	0	0.9399999998679526	0	45.55482248650357	-9.896644057439671	0	60.12294344268638	1.049343319065212	-4.950987494202437	0	0	45.55482248650357	-9.896644057439671	0	60.12294344268638	1.049343319065212	-4.950987494202437	0	0	19.8777208830346	12.11804117752903	-50.03830884623199	36.65573011897438	46.48778975637882	-52.50757530397421	75.001135114634	-0.4581814794309099	0	0	0	-15.15953634758937	0	90.410556199632	-0.4581814794309099	0	0
1.25	-5.829397291137728	-12.67745019010396	-54.48476885965126	0	0.9399999998679526	0	45.55477346172712	-9.896675658313544	0	60.12293486113062	1.049343169288809	-4.951007004645598	0	0	45.55477346172712	-9.896675658313544	0	60.12293486113062	1.049343169288809	-4.951007004645598	0	0	20.87972774400248	12.087472830162	-49.88159118575554	37.37025864687799	47.13607111303314	-52.2444938113221	75.11101771090449	-0.4581532372692317	0	0	0	-15.15952909200418	0	90.41053088264498	-0.4581532372692317	0	0
1.26	-4.586631799771619	-11.78809549770826	-53.79800696212795	0	0.9399999998679526	0	45.55176925637947	-9.897972849494073	0	60.12226625088341	1.049331499838583	-4.951735004081216	0	0	45.55176925637947	-9.897972849494073	0	60.12226625088341	1.049331499838583	-4.951735004081216	0	0	21.86322415533483	11.82739134086271	-49.18449563378471	38.2599829473262	47.61983210492025	-51.42115641285648	75.08665167454043	-0.456241219607583	0	0	0	-15.15899800455493	0	90.40881689895642	-0.456241219607583	0	0
1.27	-2.695009005554196	-11.37226408317404	-53.05688096931192	0	0.9399999998679526	0	45.54416774381198	-9.90115747189412	0	60.12057187939012	1.049301927477273	-4.953501084740987	0	0	45.54416774381198	-9.90115747189412	0	60.12057187939012	1.049301927477273	-4.953501084740987	0	0	20.99234151133279	11.06825744660626	-48.03904231557051	38.26122149041256	46.5903464887672	-50.14698322477364	74.81319913605046	-0.451383659745816	0	0	0	-15.15764535996336	0	90.40446245236586	-0.451383659745816	0	0
1.28	-1.443320750773954	-10.45216591108296	-52.41096228699215	0	0.9399999998679526	0	45.5418154044389	-9.902155423311601	0	60.12004886004847	1.049292799067709	-4.954058353931496	0	0	45.5418154044389	-9.902155423311601	0	60.12004886004847	1.049292799067709	-4.954058353931496	0	0	22.67750140778556	11.21345404698616	-47.74908055632675	39.40738831800633	47.51718150507696	-49.73452747582704	75.19663112252333	-0.4498813910321594	0	0	0	-15.15722708630527	0	90.40311577851543	-0.4498813910321594	0	0
1.29	-1.458042450071372	-10.45662810965014	-52.41064391979646	0	0.9399999998679526	0	45.54027938748846	-9.902823446978541	0	60.11971090428822	1.049286900626967	-4.954434403329813	0	0	45.54027938748846	-9.902823446978541	0	60.11971090428822	1.049286900626967	-4.954434403329813	0	0	24.15932697653286	11.313381250697	-47.50197883587229	40.43223726292762	48.37875477840355	-49.38537455659316	75.53772933823562	-0.4489047922718332	0	0	0	-15.1569560190474	0	90.40224032932434	-0.4489047922718332	0	0
1.3	-0.7212297495252338	-9.780874313929287	-52.85187990812795	0	0.9399999998679526	0	45.53784503810777	-9.903839357268515	0	60.11916864615719	1.049277436437185	-4.954998564548101	0	0	45.53784503810777	-9.903839357268515	0	60.11916864615719	1.049277436437185	-4.954998564548101	0	0	25.06184098426522	11.34209447395536	-46.43628255583213	41.00827903801617	49.19575006666912	-48.64832713305829	75.05966404797233	-0.4473458571812444	0	0	0	-15.15652115507096	0	90.4008428581686	-0.4473458571812444	0	0
